<?xml version="1.0" encoding="utf-8"?>
<!-- Generator: Adobe Illustrator 16.0.4, SVG Export Plug-In . SVG Version: 6.00 Build 0)  -->
<!DOCTYPE svg PUBLIC "-//W3C//DTD SVG 1.1//EN" "http://www.w3.org/Graphics/SVG/1.1/DTD/svg11.dtd">
<svg version="1.1" xmlns="http://www.w3.org/2000/svg" xmlns:xlink="http://www.w3.org/1999/xlink" x="0px" y="0px" width="50px"
	 height="50px" viewBox="0 0 50 50" enable-background="new 0 0 50 50" xml:space="preserve">
<symbol  id="New_Symbol_1" viewBox="-2.9 -2.9 5.8 5.8">
	<path fill="#666666" d="M0.8,2.9c-1.2,0-2.1-1-2.1-2.1c0-0.3,0.1-0.6,0.2-0.9l-1.5-1.5C-3-1.9-3-2.4-2.7-2.7C-2.4-3-1.9-3-1.6-2.7
		l1.5,1.5c0.3-0.1,0.6-0.2,0.9-0.2l0,0c1.2,0,2.1,1,2.1,2.1C2.9,1.9,1.9,2.9,0.8,2.9z M0.8-0.9c-0.9,0-1.6,0.7-1.6,1.6
		c0,0.9,0.7,1.6,1.6,1.6c0.9,0,1.6-0.7,1.6-1.6S1.7-0.9,0.8-0.9z"/>
</symbol>
<g id="template">
</g>
<g id="browser">
</g>
<g id="artwork">
	<g>
		<circle fill="#6B8F34" cx="28.4" cy="15.8" r="0.9"/>
		<circle fill="#6B8F34" cx="33.9" cy="23.1" r="0.9"/>
		<path fill="#6B8F34" d="M25,0C11.2,0,0,11.2,0,25c0,12.4,9,22.6,20.7,24.6V33.4l-1.3-1.3h-5.8c-0.2,0-0.4-0.1-0.5-0.2L11.2,30
			c-0.3,0.2-0.7,0.3-1.1,0.3c-1.3,0-2.4-1.1-2.4-2.4s1.1-2.4,2.4-2.4s2.4,1.1,2.4,2.4c0,0.4-0.1,0.8-0.3,1.1l1.6,1.6h4l-1.6-1.6
			c-0.1-0.1-0.2-0.3-0.2-0.5v-3.3l-1-1c-0.3,0.2-0.7,0.3-1.1,0.3c-1.3,0-2.4-1.1-2.4-2.4s1.1-2.4,2.4-2.4c1.3,0,2.4,1.1,2.4,2.4
			c0,0.4-0.1,0.8-0.3,1.1l1.2,1.2c0.1,0.1,0.2,0.3,0.2,0.5v3.3l2.7,2.7l0,0l1.8,1.8c0,0,0.1,0.1,0.1,0.1c0,0,0,0.1,0,0.1
			c0,0,0,0,0,0c0,0,0,0.1,0,0.1c0,0,0,0,0,0c0,0,0,0.1,0,0.1v16.8c0.7,0.1,1.3,0.1,2,0.1V39.5v-5.5v-2.2l-3.8-3.8
			c-0.1-0.1-0.2-0.3-0.2-0.5v-7.2c-1-0.3-1.7-1.2-1.7-2.3c0-1.3,1.1-2.4,2.4-2.4s2.4,1.1,2.4,2.4c0,1.1-0.7,2-1.7,2.3v6.9l2.5,2.5
			v-2.9c0-0.2,0.1-0.4,0.2-0.5l3.1-3.1v-5.1c-1-0.3-1.7-1.2-1.7-2.3c0-1.3,1.1-2.4,2.4-2.4s2.4,1.1,2.4,2.4c0,1.1-0.7,2-1.7,2.3v5.4
			c0,0.2-0.1,0.4-0.2,0.5l-3.1,3.1v6.9v5.5V50c0.7,0,1.4-0.1,2-0.1V34.1c0,0,0,0,0-0.1c0,0,0,0,0,0v-0.9v0v-4.7
			c0-0.2,0.1-0.4,0.2-0.5l3.7-3.7c-0.2-0.3-0.3-0.7-0.3-1.1c0-1.3,1.1-2.4,2.4-2.4c1.3,0,2.4,1.1,2.4,2.4c0,1.3-1.1,2.4-2.4,2.4
			c-0.4,0-0.8-0.1-1.1-0.3l-3.5,3.5v2.6l2.1-2.1c0.1-0.1,0.3-0.2,0.5-0.2h4.8l1.4-1.4c-0.2-0.3-0.3-0.7-0.3-1.1
			c0-1.3,1.1-2.4,2.4-2.4s2.4,1.1,2.4,2.4s-1.1,2.4-2.4,2.4c-0.4,0-0.8-0.1-1.1-0.3l-1.7,1.7c-0.1,0.1-0.3,0.2-0.5,0.2h-4.8
			l-2.9,2.9V34c0,0,0,0,0,0.1c0,0,0,0,0,0v15.6C41,47.6,50,37.4,50,25C50,11.2,38.8,0,25,0z"/>
		<circle fill="#6B8F34" cx="40.3" cy="26.5" r="0.9"/>
		<circle fill="#6B8F34" cx="10.1" cy="27.8" r="0.9"/>
		<circle fill="#6B8F34" cx="14" cy="22" r="0.9"/>
		<circle fill="#6B8F34" cx="21" cy="18" r="1"/>
	</g>
</g>
</svg>
