<?xml version="1.0" encoding="utf-8"?>
<!-- Generator: Adobe Illustrator 16.0.4, SVG Export Plug-In . SVG Version: 6.00 Build 0)  -->
<!DOCTYPE svg PUBLIC "-//W3C//DTD SVG 1.1//EN" "http://www.w3.org/Graphics/SVG/1.1/DTD/svg11.dtd">
<svg version="1.1" xmlns="http://www.w3.org/2000/svg" xmlns:xlink="http://www.w3.org/1999/xlink" x="0px" y="0px" width="200px"
	 height="200px" viewBox="0 0 200 200" enable-background="new 0 0 200 200" xml:space="preserve">
<symbol  id="New_Symbol_1" viewBox="-2.9 -2.9 5.8 5.8">
	<path fill="#666666" d="M0.8,2.9c-1.2,0-2.1-1-2.1-2.1c0-0.3,0.1-0.6,0.2-0.9l-1.5-1.5C-3-1.9-3-2.4-2.7-2.7C-2.4-3-1.9-3-1.6-2.7
		l1.5,1.5c0.3-0.1,0.6-0.2,0.9-0.2l0,0c1.2,0,2.1,1,2.1,2.1C2.9,1.9,1.9,2.9,0.8,2.9z M0.8-0.9c-0.9,0-1.6,0.7-1.6,1.6
		c0,0.9,0.7,1.6,1.6,1.6c0.9,0,1.6-0.7,1.6-1.6S1.7-0.9,0.8-0.9z"/>
</symbol>
<g id="template">
</g>
<g id="browser">
</g>
<g id="artwork">
	<g>
		<path fill="#858585" d="M117.2,63.3c0-2.1-1.7-3.8-3.8-3.8c-2.1,0-3.8,1.7-3.8,3.8c0,2.1,1.7,3.8,3.8,3.8
			C115.5,67.1,117.2,65.4,117.2,63.3z"/>
		<path fill="#858585" d="M139.4,92.4c0-2.1-1.7-3.8-3.8-3.8c-2.1,0-3.8,1.7-3.8,3.8s1.7,3.8,3.8,3.8
			C137.7,96.2,139.4,94.4,139.4,92.4z"/>
		<path fill="#858585" d="M100,0C44.8,0,0,44.8,0,100c0,49.4,35.9,90.5,83,98.6v-65l-5.3-5.3H54.5c-0.8,0-1.5-0.3-2.1-0.9l-7.4-7.4
			c-1.3,0.7-2.9,1.1-4.5,1.1c-5.4,0-9.8-4.4-9.8-9.8c0-5.4,4.4-9.8,9.8-9.8s9.8,4.4,9.8,9.8c0,1.6-0.4,3.1-1.1,4.5l6.6,6.6h16
			l-6.5-6.5c-0.6-0.6-0.9-1.3-0.9-2.1v-13l-4-4c-1.3,0.7-2.9,1.1-4.5,1.1c-5.4,0-9.8-4.4-9.8-9.8s4.4-9.8,9.8-9.8
			c5.4,0,9.8,4.4,9.8,9.8c0,1.6-0.4,3.1-1.1,4.5l4.8,4.8c0.6,0.6,0.9,1.3,0.9,2.1v13L81,123.2v0l7.1,7.1c0.1,0.1,0.3,0.3,0.4,0.5
			c0.1,0.1,0.1,0.2,0.2,0.3c0,0.1,0.1,0.1,0.1,0.2c0.1,0.1,0.1,0.3,0.1,0.4c0,0.1,0,0.1,0,0.2c0,0.2,0.1,0.4,0.1,0.6v67.1
			c2.7,0.3,5.4,0.5,8.1,0.6v-41.9v-21.9v-8.8l-15.2-15.2c-0.6-0.6-0.9-1.3-0.9-2.1v-29c-3.9-1.3-6.8-4.9-6.8-9.3
			c0-5.4,4.4-9.8,9.8-9.8s9.8,4.4,9.8,9.8c0,4.3-2.9,8-6.8,9.3v27.7L97,119.1v-11.6c0-0.8,0.3-1.5,0.9-2.1l12.5-12.6V72.6
			c-3.9-1.3-6.8-4.9-6.8-9.3c0-5.4,4.4-9.8,9.8-9.8s9.8,4.4,9.8,9.8c0,4.3-2.9,8-6.8,9.3v21.5c0,0.8-0.3,1.5-0.9,2.1L103,108.7v27.5
			v21.9V200c2.7-0.1,5.4-0.3,8.1-0.6v-63.2c0-0.1,0-0.2,0-0.2c0,0,0,0,0,0v-3.4c0,0,0,0,0,0v-18.7c0-0.8,0.3-1.5,0.9-2.1l15-15
			c-0.7-1.3-1.1-2.9-1.1-4.5c0-5.4,4.4-9.8,9.8-9.8c5.4,0,9.8,4.4,9.8,9.8c0,5.4-4.4,9.8-9.8,9.8c-1.6,0-3.1-0.4-4.5-1.1l-14.1,14.1
			v10.3l8.3-8.3c0.6-0.6,1.3-0.9,2.1-0.9h19.2l5.8-5.8c-0.7-1.3-1.1-2.9-1.1-4.5c0-5.4,4.4-9.8,9.8-9.8s9.8,4.4,9.8,9.8
			c0,5.4-4.4,9.8-9.8,9.8c-1.6,0-3.1-0.4-4.5-1.1l-6.7,6.7c-0.6,0.6-1.3,0.9-2.1,0.9h-19.2l-11.7,11.7v2.2c0,0.1,0,0.2,0,0.2
			c0,0,0,0,0,0v62.3c47.1-8.1,83-49.1,83-98.6C200,44.8,155.2,0,100,0z"/>
		<path fill="#858585" d="M165,105.9c0-2.1-1.7-3.8-3.8-3.8c-2.1,0-3.8,1.7-3.8,3.8c0,2.1,1.7,3.8,3.8,3.8
			C163.3,109.7,165,108,165,105.9z"/>
		<path fill="#858585" d="M36.7,111.3c0,2.1,1.7,3.8,3.8,3.8c2.1,0,3.8-1.7,3.8-3.8c0-2.1-1.7-3.8-3.8-3.8
			C38.4,107.5,36.7,109.2,36.7,111.3z"/>
		<path fill="#858585" d="M52.1,88c0,2.1,1.7,3.8,3.8,3.8c2.1,0,3.8-1.7,3.8-3.8c0-2.1-1.7-3.8-3.8-3.8C53.8,84.2,52.1,85.9,52.1,88
			z"/>
		<path fill="#858585" d="M83.9,68.1c-2.1,0-3.8,1.7-3.8,3.8c0,2.1,1.7,3.8,3.8,3.8c2.1,0,3.8-1.7,3.8-3.8
			C87.7,69.8,86,68.1,83.9,68.1z"/>
	</g>
</g>
</svg>
